<svg xmlns="http://www.w3.org/2000/svg" width="549" height="494" fill="none"><rect width="193" height="364.961" fill="#6E479E" rx="24" transform="rotate(-7.297 1046.454 -114.357) skewX(-.011)"/><rect width="193" height="364.961" fill="#6E479E" rx="24" transform="matrix(.99666 .08164 -.0815 .99667 326 0)"/><path fill="#F6FCF4" d="M279.423 198.978c-1.357 0-1.294 6.504-4.8 11.174-3.042 4.053-7.623 5.124-7.623 6.834 0 1.57 4.574 1.848 7.856 5.953 2.854 3.57 3.566 10.036 4.852 10.036 1.285 0 .935-6.128 4.269-10.427 3.398-4.382 8.023-4.476 8.023-5.94 0-1.493-5.435-2.72-8.263-6.778-2.976-4.273-2.814-10.852-4.314-10.852ZM254.467 241.974c-.598 0-.571 2.869-2.113 4.929-1.338 1.789-3.354 2.262-3.354 3.016 0 .691 2.012.814 3.457 2.626 1.255 1.575 1.569 4.427 2.136 4.427.564 0 .41-2.704 1.876-4.599 1.497-1.933 3.531-1.975 3.531-2.621 0-.659-2.391-1.2-3.635-2.99-1.31-1.887-1.238-4.788-1.898-4.788ZM26.423 405.956c-1.357 0-1.295 6.504-4.8 11.173-3.042 4.053-7.623 5.125-7.623 6.835 0 1.571 4.573 1.847 7.856 5.954 2.854 3.568 3.566 10.034 4.852 10.034 1.286 0 .935-6.127 4.269-10.425 3.398-4.382 8.023-4.478 8.023-5.942 0-1.492-5.435-2.719-8.262-6.776-2.976-4.275-2.816-10.853-4.315-10.853ZM5.466 451.951c-.597 0-.57 2.869-2.112 4.93C2.015 458.668 0 459.14 0 459.896c0 .692 2.012.815 3.456 2.625 1.256 1.575 1.57 4.428 2.135 4.428.567 0 .413-2.703 1.88-4.6 1.494-1.933 3.529-1.975 3.529-2.621 0-.658-2.391-1.2-3.635-2.99-1.31-1.884-1.24-4.787-1.899-4.787ZM536.422 331.964c-1.356 0-1.295 6.503-4.799 11.172-3.043 4.053-7.623 5.124-7.623 6.835 0 1.57 4.573 1.848 7.855 5.954 2.855 3.568 3.567 10.035 4.854 10.035 1.285 0 .934-6.129 4.268-10.427 3.399-4.382 8.023-4.476 8.023-5.941 0-1.491-5.434-2.719-8.261-6.778-2.978-4.273-2.817-10.85-4.317-10.85ZM514.467 300.967c-.597 0-.571 2.87-2.112 4.929-1.339 1.788-3.355 2.261-3.355 3.015 0 .693 2.014.817 3.457 2.628 1.255 1.573 1.569 4.427 2.136 4.427.564 0 .41-2.704 1.876-4.601 1.497-1.933 3.531-1.975 3.531-2.62 0-.658-2.39-1.2-3.635-2.991-1.31-1.885-1.238-4.787-1.898-4.787Z"/><path fill="url(#a)" d="M452 407.956h-31.599c-3.355 43.87-29.705 53.013-37.372 54.752v-12L356 471.826l27.029 21.121v-12.694C444.217 475.365 452 407.956 452 407.956Z"/><path fill="url(#b)" d="M103 87.99h31.597c3.355-43.87 29.707-53.013 37.373-54.753v12.002L199 24.119 171.97 3v12.693C110.782 20.58 103 87.99 103 87.99Z"/><path fill="url(#c)" d="M470.285 358.961c-.314 0-.631-.014-.95-.042l-153.42-13.276c-5.971-.516-10.391-5.765-9.874-11.721l1.951-22.437 8.077-92.958 54.795-32.626c10.913 10.514 25.898 17.448 42.395 19.105 2.183.219 4.353.326 6.502.326 32.537 0 60.416-24.608 63.745-57.603.945-9.365-.173-18.577-2.986-27.12l21.528-12.819-19.902 229.027-1.063 12.251c-.491 5.64-5.23 9.893-10.798 9.893Zm-99.278-101.447-.645 7.433 65.472 5.667.647-7.434-65.474-5.666Zm1.864-21.45-.645 7.434 100.644 8.708.646-7.433-100.645-8.709Zm-50.318-92.146 4.127-47.496c23.898-14.287 85.353-50.794 123.169-72.28l48.216 4.173A10.816 10.816 0 0 1 505 31.65l-70.994 43.686a64.338 64.338 0 0 0-17.228-4.17 65.212 65.212 0 0 0-6.502-.328c-32.537 0-60.418 24.61-63.745 57.604-.027.255-.051.512-.073.767l-23.905 14.709Zm8.241-94.835 2.103-24.192c.489-5.64 5.229-9.893 10.796-9.893.314 0 .63.014.95.041l45.543 3.941-59.392 30.103Z"/><path fill="#6FCEC3" d="M338.319 249.951c-1.191-.579-3.252 1.595-3.318 2.347-.066.75 3.695 5.829 3.975 6.182.28.353 3.714.69 4.095.353.379-.339 2.168-8.781 17.89-24.753.833-.85-11.806 3.232-19.893 20.056 0 0-1.862-3.755-2.749-4.185Z"/><path fill="url(#d)" d="M472.356 251.973 372 243.342l.643-7.368L473 244.606l-.644 7.367Z"/><path fill="url(#e)" d="M436.355 269.971 371 264.348l.644-7.376L437 262.595l-.645 7.376Z"/><path fill="#B5571F" d="M353.301 138.109c-3.551 35.276 24.819 62.991 60.085 66.541 35.268 3.551 66.735-22.167 70.285-57.443 3.549-35.276-21.998-68.387-57.264-71.938-35.268-3.552-69.557 27.565-73.106 62.84Z"/><path fill="#F79722" d="M347.327 127.577c-3.54 35.163 22.098 66.536 57.264 70.075 35.165 3.539 66.543-22.096 70.082-57.258 3.541-35.161-22.098-66.536-57.264-70.075-35.166-3.54-66.543 22.096-70.082 57.258Z"/><path fill="#F9D632" d="M364 117.987c6.745-20.06 25.606-33.996 47.084-33.996a50.14 50.14 0 0 1 6.916.48l-38.033 23.605a3.13 3.13 0 0 0-2.091-.829c-.817 0-1.645.352-2.247 1.206a43.403 43.403 0 0 0-2.387 3.798L364 117.987Z"/><path fill="#B74E1E" d="M404.528 197.979c-.009 0-.017-.002-.025-.003.008.001.016.003.025.003Zm-.059-.006-.03-.003.03.003Zm-.061-.007-.051-.004.051.004Zm-.08-.008-.038-.004a.49.49 0 0 0 .038.004Zm-.057-.006a.542.542 0 0 1-.04-.004l.04.004Zm-.055-.006a30.36 30.36 0 0 1-.139-.015l.139.015Zm-.145-.016-.047-.005a.677.677 0 0 0 .047.005Zm-.055-.006Zm-2.194-.28-.193-.028.193.028Zm-.206-.03-.041-.006.041.006Zm-.056-.008Zm-.148-.023-.033-.005.033.005Zm-.064-.01-.024-.003.024.003Zm-.082-.012-.008-.001.008.001Zm-.061-.009Zm-.064-.011-.012-.001.012.001Zm-.139-.022H401h.002Zm73.679-57.33.002-.022-.002.022Zm.006-.064.002-.025-.002.025Zm.008-.082.002-.029a.327.327 0 0 1-.002.029Zm.006-.06.002-.034-.002.034Zm.006-.064a.914.914 0 0 1 .005-.052l-.005.052Zm.008-.086.003-.037-.003.037Zm.005-.058Zm.005-.049.008-.092-.008.092Zm.008-.099Zm.005-.053.014-.152-.014.152Zm.014-.153Zm.238-4.541Zm.003-.155.001-.045-.001.045Zm.001-.053.001-.081-.001.081Zm.001-.1.001-.038-.001.038Zm.001-.066v-.03.03Zm.002-.086v-.025.025Zm0-.064v-.023.023Zm.001-.073v-.013.013Zm0-.076v-.014.014Zm.001-.068v-.012.012Zm0-.146v-.008.008Z"/><path fill="#F68623" d="M411.051 197.979c-2.142 0-4.312-.108-6.489-.326-.02-.001-.039-.004-.058-.006a.1.1 0 0 1-.025-.003l-.034-.003-.03-.003-.031-.003-.051-.005-.029-.003a.49.49 0 0 0-.038-.004l-.019-.002-.04-.004-.016-.002-.138-.015-.006-.001a.617.617 0 0 1-.047-.005l-.008-.001a62.283 62.283 0 0 1-2.189-.277h-.006l-.193-.028-.013-.002a.46.46 0 0 0-.056-.008 6.445 6.445 0 0 0-.126-.019l-.022-.004-.033-.004-.031-.005a.24.24 0 0 1-.024-.004l-.058-.008-.008-.001-.054-.009a.716.716 0 0 1-.063-.01l-.012-.001-.127-.021h-.002A63.714 63.714 0 0 1 372 184.787l13.581-8.08a49.599 49.599 0 0 0 20.42 6.7c1.688.169 3.371.253 5.033.253 25.192.002 46.775-19.035 49.352-44.561.239-2.366.306-4.713.213-7.023l13.597-8.089c.544 3.377.819 6.836.803 10.347V134.485l-.001.054v.089l-.001.049v.086l-.001.056V134.876l-.001.037v.02l-.002.079v.009l-.001.044v.011l-.002.143v.005a64.143 64.143 0 0 1-.238 4.487v.001l-.015.151v.004a.716.716 0 0 1-.004.048v.007l-.009.091-.001.008a.475.475 0 0 1-.006.061l-.002.037-.004.034-.005.051-.003.03-.003.033-.003.031-.003.029-.006.056a.195.195 0 0 1-.002.025l-.004.042-.002.021a.65.65 0 0 0-.006.062c-3.322 32.907-31.147 57.449-63.623 57.446Z"/><path fill="#FABB29" d="M410.433 183.98c-1.661 0-3.342-.084-5.029-.255A49.244 49.244 0 0 1 385 176.972l18.999-11.402 2.704 5.178 10.743-13.248 42.514-25.514a50.684 50.684 0 0 1-.213 7.078c-2.575 25.73-24.141 44.918-49.314 44.916Z"/><path fill="#F57E21" d="M406.614 170.981 404 165.9l13-7.917-10.386 12.998Z"/><path fill="#F9AA20" d="M379.999 88.99c-1.754 0-2.916-2.789-1.04-4.078 7.687-5.28 16.702-8.318 25.987-8.916.055-.003.11-.004.163-.004 2.583 0 2.511 4.12-.163 4.292-8.551.55-16.77 3.48-23.832 8.33-.382.263-.761.376-1.115.376ZM420.596 80.991c-2.24 0-5.394-1.27-6.483-1.344-2.8-.193-2.779-4.656-.165-4.656.053 0 .109.003.165.007 2.627.18 5.267.878 7.687 1.967.711.32 1.06.822 1.145 1.372.319 2.044-.796 2.654-2.349 2.654Z"/><path fill="#FAE750" d="M373 111.988a43.005 43.005 0 0 1 2.484-3.795c.627-.853 1.489-1.205 2.339-1.205.809 0 1.606.32 2.177.829l-7 4.171Z"/><path fill="url(#f)" d="m327 95.99 4.108-47.676 59.31-30.316 59.582 5.2c-37.764 21.637-99.135 58.404-123 72.792Z"/><path fill="url(#g)" d="m316 217.976 6.487-74.65 23.916-14.717c-1.87 21.026 6.684 40.627 21.443 53.655a63.264 63.264 0 0 0 2.975 3.069L316 217.976Zm164.53-97.971c-5.782-17.564-18.727-32.303-35.663-39.744a63.776 63.776 0 0 0-10.874-5.555l71.028-43.71a10.795 10.795 0 0 1 2.938 8.392l-5.891 67.791-21.538 12.826Z"/><path fill="#A96D2A" d="M370.957 184.98a62.37 62.37 0 0 1-2.957-3.066 62.89 62.89 0 0 0 3.39 2.806l-.433.26Zm102.259-61.216c-2.904-18.165-13.518-34.057-28.662-43.773 16.833 7.436 29.699 22.163 35.446 39.713l-6.784 4.06Z"/><path fill="#F9AB29" d="M371.999 184.98a63.375 63.375 0 0 1-3.396-2.799c-14.695-12.983-23.211-32.517-21.349-53.471l16.702-10.288a49.615 49.615 0 0 0-2.37 10.956 49.26 49.26 0 0 0 7.293 31.217 115.553 115.553 0 0 1-15.409 1.713 64.205 64.205 0 0 0 18.534 22.67l-.005.002ZM474 124.185c-2.825-17.584-12.923-33.026-27.383-42.78-1.345 4.87-2.811 9.72-4.474 14.488A49.34 49.34 0 0 0 417.728 85.3l16.734-10.307a63.471 63.471 0 0 1 10.826 5.535c15.171 9.69 25.803 25.54 28.712 43.658Z"/><path fill="#F9DF42" d="M368.564 159.983c-5.649-9.071-8.459-20.03-7.311-31.506a50.416 50.416 0 0 1 2.377-11.058l9.225-5.721c-3.579 6.402-5.52 13.681-5.664 21.039-.033 1.743 1.297 2.615 2.643 2.615 1.347 0 2.711-.872 2.744-2.615.155-7.957 2.74-15.607 7.311-22.091.827-1.176.493-2.353-.322-3.112l37.961-23.543A49.283 49.283 0 0 1 442 94.683c-3.633 10.481-8.212 20.555-14.548 29.527l-13.083-27.54-25.359 33.805 22.912-9.347 11.854 7.914a82.6 82.6 0 0 1-1.635 1.931l-10.523-6.803-21.186 8.446 15.337 12.641a90.057 90.057 0 0 1-3.971 2.51l-13.229-12.882 8.183 15.674c-8.84 4.537-18.374 7.639-28.188 9.424Zm2.1-20.813c-1.589 0-3.28 1.3-2.82 3.347.41 1.824 1.077 3.589 1.904 5.263.486.984 1.194 1.385 1.919 1.385 1.658 0 3.411-2.097 2.836-4.148-.385-1.37-1.205-2.79-1.464-3.941-.298-1.326-1.313-1.906-2.375-1.906Z"/><path fill="#F8A023" d="M405.477 145.984 390 133.397l21.38-8.411L422 131.76a77.327 77.327 0 0 1-5.486 5.598 86.998 86.998 0 0 1-11.037 8.626ZM396.041 150.984 388 134.985l13 13.149a89.839 89.839 0 0 1-4.959 2.85Z"/><path fill="#F8A023" d="m389 130.986 25.067-33.996L427 124.686a84.536 84.536 0 0 1-3.634 4.859l-11.718-7.959-22.648 9.4Z"/><path fill="#F89A26" d="M371.606 184.98A64.443 64.443 0 0 1 353 162.219c5.193-.231 10.37-.798 15.469-1.72a49.929 49.929 0 0 0 16.744 16.369l-13.607 8.112Zm88.77-52.916c-.588-14.549-7.533-27.733-18.358-36.527 1.671-4.786 3.142-9.656 4.492-14.546 14.517 9.793 24.654 25.298 27.49 42.952l-13.624 8.121Z"/><path fill="#FCCA38" d="M384.761 176.981A49.868 49.868 0 0 1 368 160.68c9.839-1.768 19.398-4.841 28.26-9.336l7.571 14.328-19.07 11.309Zm32.567-19.313 14.351-17.487-23.548 14.952-6.812-6.555a89.86 89.86 0 0 0 3.981-2.486l3.462 2.821 21.621-11.432-8.669-5.54a79.602 79.602 0 0 0 1.639-1.913l8.769 5.784-5.083-10.571c6.351-8.888 10.942-18.868 14.585-29.251 10.835 8.757 17.788 21.886 18.376 36.374l-42.672 25.304Z"/><path fill="#F79323" d="M409.451 148.984 406 146.159a86.36 86.36 0 0 0 10.928-8.596 77.072 77.072 0 0 0 5.432-5.577l8.64 5.547-21.549 11.451Z"/><path fill="#F79323" d="M404.481 164.982 397 150.37a90.723 90.723 0 0 0 4.999-2.821l6.732 6.684L432 138.985l-14.181 17.835-13.338 8.162ZM433 134.985l-9-6.018a86.41 86.41 0 0 0 3.783-4.98L433 134.985Z"/><path fill="#F9ED62" d="M369.608 135.985c-1.328 0-2.64-.877-2.607-2.632.141-7.405 2.057-14.731 5.587-21.174l6.622-4.191c.804.764 1.134 1.949.318 3.132-4.509 6.526-7.06 14.225-7.213 22.233-.033 1.755-1.378 2.632-2.707 2.632ZM371.987 149.984c-.742 0-1.465-.401-1.962-1.386-.845-1.674-1.527-3.44-1.947-5.265-.47-2.047 1.26-3.348 2.884-3.348 1.085 0 2.123.58 2.427 1.907.265 1.151 1.103 2.571 1.497 3.942.587 2.053-1.204 4.15-2.899 4.15Z"/><path fill="#F5FBF1" d="M467.901 378.33c10.371.91 19.482-6.803 20.378-17.168l28.096-324.79a18.778 18.778 0 0 0-4.343-13.77 18.684 18.684 0 0 0-12.783-6.66L346.099 2.63c-5.007-.428-9.887 1.111-13.738 4.353a18.759 18.759 0 0 0-6.64 12.816l-28.097 324.789c-.896 10.366 6.788 19.53 17.127 20.429l153.15 13.313Zm1.64 1.629c-.587 0-1.179-.027-1.774-.078l-153.151-13.313c-11.192-.972-19.508-10.894-18.539-22.114l28.097-324.79a20.3 20.3 0 0 1 7.189-13.873 20.211 20.211 0 0 1 14.87-4.712l153.148 13.313a20.22 20.22 0 0 1 13.84 7.208c3.503 4.177 5.171 9.47 4.701 14.907l-28.095 324.79c-.919 10.623-9.839 18.662-20.286 18.662Z"/><path fill="url(#h)" d="M84.972 470.949c-5.366 0-10.02-4.003-10.71-9.479l-30.34-240.646 25.507 13.823a65.865 65.865 0 0 0-1.877 25.792c4.082 32.376 31.594 56.036 63.317 56.036 2.671 0 5.375-.168 8.094-.512 16.657-2.11 31.623-9.638 42.26-20.728l52.063 28.217 14.627 116.015c.749 5.937-3.446 11.359-9.369 12.11L95.03 469.761l-8.689 1.101c-.46.058-.917.087-1.37.087Zm101.444-106.132-64.954 8.232.935 7.408 64.954-8.231-.935-7.409Zm32.198-25.799-99.847 12.651.934 7.41 99.847-12.652-.934-7.409Zm5.242-90.369-20.433-11.396c-4.262-32.166-31.675-55.623-63.266-55.623-2.669 0-5.375.168-8.093.513a63.73 63.73 0 0 0-18.249 5.136L38 144.997a10.761 10.761 0 0 1 6.799-3.638l11.449-1.45 36.696-4.65c38.507 19.79 100.534 53.179 124.991 66.433l5.921 46.957Zm-11.848-93.974-59.344-26.984 44.338-5.617c.46-.059.918-.087 1.369-.087l.187.002c5.287.091 9.842 4.064 10.524 9.477l2.926 23.209Z"/><path fill="#6FCEC3" d="M87.682 372.847c-1.255-.309-2.77 2.189-2.678 2.921.094.73 4.728 4.815 5.07 5.094.34.281 3.683-.1 3.976-.499.292-.399.25-8.832 11.925-27.306.62-.98-10.581 5.501-14.807 23.227 0 0-2.552-3.206-3.486-3.437Z"/><path fill="url(#i)" d="m119.936 358.961-.936-7.387 100.064-12.611.936 7.386-100.064 12.612Z"/><path fill="url(#j)" d="M121.937 379.959 121 372.38l65.063-8.419.937 7.578-65.063 8.42Z"/><path fill="#B5571F" d="M197.53 247.392c4.442 35.182-23.195 63.615-58.339 68.06-35.143 4.447-67.233-20.469-71.674-55.65-4.442-35.182 20.24-68.94 55.383-73.387 35.143-4.445 70.189 25.795 74.63 60.977Z"/><path fill="#F79722" d="M203.488 237.95c4.432 35.06-20.4 67.073-55.463 71.504-35.064 4.432-67.081-20.397-71.513-55.457-4.431-35.06 20.4-67.074 55.463-71.505 35.065-4.431 67.081 20.398 71.513 55.458Z"/><path fill="#F9D632" d="m186 226.975-9.881-5.594a49.225 49.225 0 0 0-8.435-10.382c-.546-.508-1.159-.724-1.755-.724-1.866 0-3.571 2.1-2.577 3.877L131 195.836a49.073 49.073 0 0 1 9.111-.857c20.451 0 38.633 12.942 45.889 31.996Z"/><path fill="#B74E1E" d="M140.067 309.966h-.009.009Zm.001 0Zm8.182-.518.022-.002-.022.002Zm.058-.007Zm.06-.007.02-.004-.02.004Zm.057-.008.022-.003c-.007.001-.014.003-.022.003Zm.078-.01.004-.001-.004.001Zm.057-.007.018-.002a.11.11 0 0 0-.018.002Zm.06-.008.018-.003-.018.003Zm.055-.008.023-.003-.023.003Zm.064-.008a.06.06 0 0 1 .015-.002l-.015.002Zm.131-.018.011-.001-.011.001Zm.059-.008.015-.003a.04.04 0 0 1-.015.003Zm.064-.009.007-.001-.007.001Zm-72.418-54.554Zm-.064-.479-.01-.069.01.069Zm-.038-.296Zm-.012-.09-.002-.018.002.018Zm-.011-.095-.003-.02.003.02Zm-.012-.094-.003-.023.003.023Zm-.011-.093-.003-.025.003.025Zm-.01-.087a.533.533 0 0 0-.004-.028l.003.028Zm-.011-.091-.003-.027c0 .01.002.016.003.027Zm-.011-.095-.004-.029.004.029Zm-.01-.094a1.218 1.218 0 0 1-.005-.034l.004.034Zm-.012-.096-.004-.035.004.035Zm-.009-.08-.006-.053.006.053Zm-.01-.095Zm-.01-.094-.006-.048.005.048Zm-.01-.095-.005-.042.004.042Zm-.011-.098-.004-.042.004.042Zm-.009-.081c-.001-.019-.003-.039-.006-.058l.006.058Zm-.009-.089-.007-.07.007.07Zm-.01-.095-.006-.072c.001.024.004.049.007.072Zm-.01-.098-.005-.061.006.061Zm-.01-.098-.003-.045.004.045Zm-.006-.075-.007-.069.007.069Zm-.009-.092a9.498 9.498 0 0 1-.007-.075l.007.075Zm-.01-.099-.006-.074.007.074Zm-.009-.098-.007-.079.007.079Zm-.008-.097Zm-.014-.154Zm-.01-.107-.007-.085.007.085Zm-.008-.1-.007-.085.007.085Zm-.008-.099-.013-.148.012.148Zm-.013-.151a7.591 7.591 0 0 0-.008-.095l.008.095Zm-.01-.113-.006-.081.007.081Zm-.007-.099-.006-.084.006.084Zm-.008-.097-.006-.088c.002.03.005.058.006.088Zm-.007-.099-.018-.248.018.248Zm-.019-.26-.006-.087.006.087Zm-.007-.103-.005-.079.005.079Zm-.007-.1a2.88 2.88 0 0 1-.005-.081l.005.081Zm-.006-.097-.01-.147.01.147Zm-.01-.165a3.403 3.403 0 0 1-.006-.078l.005.078Zm-.007-.101-.005-.073.005.073Zm-.006-.1Zm-.006-.097Zm-.005-.099-.003-.042.002.042Zm-.006-.098a.855.855 0 0 1-.002-.041c0 .015 0 .027.002.041Zm-.004-.079Zm-.005-.092-.004-.059.004.059Zm-.006-.098-.002-.051.002.051Zm-.004-.094-.002-.04c0 .015 0 .026.002.04Zm-.005-.099a.627.627 0 0 1-.002-.035l.002.035Zm-.005-.097Zm-.005-.096v-.024.024Zm-.003-.086-.002-.028.002.028Zm-.004-.096Zm-.004-.093-.001-.021v.021Zm-.004-.095v-.019.019Zm-.004-.096v-.015.015Zm-.003-.096v-.005.005Zm-.004-.09v-.006.006Zm-.003-.093v-.005.005Zm-.003-.093v-.005.005Zm-.003-.093v-.004.004Z"/><path fill="#F68623" d="M140.025 309.966h-.008c-31.588-.003-59.016-23.242-63.413-55.141l-.013-.099a52.969 52.969 0 0 1-.051-.38l-.01-.069-.017-.141-.01-.086a.145.145 0 0 1-.002-.012l-.01-.078-.002-.018-.01-.077-.003-.02a3.728 3.728 0 0 0-.008-.074l-.003-.022-.009-.071-.002-.025-.008-.062a2.481 2.481 0 0 1-.01-.091l-.004-.027a3.25 3.25 0 0 1-.008-.068l-.003-.029-.007-.064-.005-.035-.007-.062a.98.98 0 0 0-.003-.034l-.005-.046-.006-.052-.005-.042-.005-.05-.005-.044a1.562 1.562 0 0 0-.01-.096l-.005-.041-.006-.056-.004-.042-.004-.04-.006-.057-.003-.031-.007-.07a.72.72 0 0 0-.003-.025l-.007-.072-.003-.026-.006-.061c0-.011-.002-.025-.004-.037 0-.014-.002-.03-.004-.045l-.002-.03-.008-.069-.001-.023-.007-.075a.39.39 0 0 1-.003-.024l-.007-.074a.487.487 0 0 0-.002-.024l-.007-.079-.001-.017-.014-.15v-.004l-.009-.093v-.015l-.008-.084-.001-.016-.007-.085-.002-.014a18.44 18.44 0 0 1-.012-.148v-.002l-.008-.096-.001-.018-.007-.081-.001-.018-.006-.083-.002-.013-.006-.089-.001-.01-.018-.248v-.012a5.406 5.406 0 0 0-.008-.103l-.006-.079v-.021l-.006-.081-.002-.016-.009-.147v-.017l-.006-.079a1.45 1.45 0 0 0-.006-.096 2.44 2.44 0 0 1-.006-.096l-.001-.028a3.127 3.127 0 0 1-.004-.064l-.002-.035-.003-.042-.002-.056-.003-.04-.002-.038-.003-.059-.002-.033a3.015 3.015 0 0 0-.003-.06c0-.013 0-.025-.002-.038l-.003-.051a1.398 1.398 0 0 0-.003-.084l-.003-.058-.002-.035-.003-.062-.001-.031-.004-.066v-.023l-.003-.062-.002-.028-.002-.068-.002-.019-.002-.074-.001-.021-.003-.074v-.019l-.004-.077v-.015l-.004-.081v-.005l-.003-.085v-.006l-.003-.087v-.005c0-.031-.002-.057-.003-.088v-.005l-.003-.088v-.004c-.094-3.05.034-6.067.367-9.031l13.984 7.527a49.69 49.69 0 0 0 .396 5.84c3.175 25.022 24.583 43.308 49.266 43.308 2.077 0 4.183-.13 6.297-.396 7.631-.961 14.637-3.596 20.696-7.488L181 295.283c-8.824 7.297-19.714 12.324-31.869 14.042a9.014 9.014 0 0 0-.183.025l-.007.001-.049.006-.014.002-.048.007-.011.001-.116.016a.078.078 0 0 0-.016.002l-.04.005-.023.004-.037.004-.018.003-.042.006-.018.002-.053.006-.004.001-.056.008a.15.15 0 0 1-.021.002l-.038.005-.02.003-.037.005a.195.195 0 0 0-.023.002l-.036.005c-.006.001-.015.001-.021.003a65.053 65.053 0 0 1-8.174.517h-.001Z"/><path fill="#FABB29" d="M139.885 294.968c-24.794 0-46.298-18.229-49.487-43.173a49.13 49.13 0 0 1-.398-5.822l31.01 16.567-.415.051 1.065 8.326 5.811-.726 1.138 8.887 8.424-1.053-.951-7.433L167 287.109c-6.086 3.88-13.124 6.507-20.789 7.464a51.125 51.125 0 0 1-6.326.395Z"/><path fill="#F57E21" d="m128.8 278.97-1.107-9.134-5.656.745-1.037-8.557.404-.052 14.671 8.276.925 7.64-8.2 1.082Z"/><path fill="#F68623" d="M122.635 191.979 114 187.202a62.143 62.143 0 0 1 9-3.223 89.703 89.703 0 0 0-.365 8Z"/><path fill="#F9AA20" d="M179.041 205.978c-.391 0-.814-.114-1.243-.371-1.637-.985-2.852-2.618-4.179-3.961-1.47-1.489-.064-3.668 1.537-3.668.465 0 .946.184 1.377.621l3.734 3.781c1.53 1.549.443 3.598-1.226 3.598Z"/><path fill="#FAE750" d="m176 221.976-12.708-7.16c-.99-1.76.708-3.839 2.565-3.839.593 0 1.203.213 1.747.717A48.777 48.777 0 0 1 176 221.976Z"/><path fill="url(#k)" d="M218 200.978c-24.459-13.253-86.49-46.637-125-66.425l59.725-7.567 59.348 26.98L218 200.978Z"/><path fill="url(#l)" d="m233 322.965-52-28.148a62.957 62.957 0 0 0 2.36-2.601c14.515-13.532 22.544-33.623 19.867-54.828l-.054-.414 20.408 11.369 7.862 62.287L233 322.965Z"/><path fill="#A96D2A" d="m181.404 294.968-.404-.23a72.047 72.047 0 0 0 3-2.77 71.048 71.048 0 0 1-2.596 3Z"/><path fill="#F9AB29" d="m180.955 294.968-.007-.004a64.49 64.49 0 0 0 15.118-18.421c-5.2-.371-10.324-1.13-15.323-2.385a49.906 49.906 0 0 0 8.582-34.851 50.211 50.211 0 0 0-2.951-11.788l17.063 9.568.054.415c2.67 21.293-5.338 41.467-19.816 55.055a63.522 63.522 0 0 1-2.72 2.411Zm-57.713-96.133a95.086 95.086 0 0 1-.242-6.856l8.265 4.636a49.109 49.109 0 0 0-8.023 2.22Z"/><path fill="#F9DF42" d="M180.953 273.97c-7.501-1.854-14.721-4.798-21.486-9.178a14.015 14.015 0 0 0 2.606-1.988c2.112-2.053 4.471-5.748 3.715-11.682-.505-3.968-2.211-7.217-4.931-9.406 2.039-2.722 2.939-6.247 2.424-10.296-.755-5.935-3.965-8.93-6.524-10.396-2.623-1.502-5.426-1.938-7.801-1.938-.553 0-1.082.024-1.581.063l-.564-4.429-5.246.659.56 4.404-2.899.363-.56-4.403-5.247.659.56 4.403-3.879.487-.881-6.911-3.744.47A93.735 93.735 0 0 1 123 199.183a49.839 49.839 0 0 1 8.087-2.204l32.67 18.047c.135.236.319.466.559.684 6.373 5.801 10.891 13.28 13.018 21.604.34 1.33 1.37 1.907 2.433 1.907 1.606 0 3.286-1.315 2.77-3.332a48.831 48.831 0 0 0-5.887-13.74l9.978 5.513a49.265 49.265 0 0 1 2.974 11.705c1.617 12.704-1.776 24.891-8.649 34.603Zm1.507-29.752a3.14 3.14 0 0 0-1.658.477c-2.232 1.415-.824 5.147-1.099 7.315-.211 1.671 1.209 2.576 2.646 2.576 1.366 0 2.746-.819 2.751-2.577.251-1.979.119-3.959-.241-5.92-.229-1.255-1.282-1.871-2.399-1.871Zm-30.978 14.521-.428-.38a79.363 79.363 0 0 1-9.346-9.938l8.443-1.06c.389-.049.762-.121 1.137-.188.146-.005.296-.009.447-.009 1.323 0 2.742.24 3.773 1.057 1.272 1.008 1.727 2.707 1.886 3.955.387 3.04-.838 4.231-1.239 4.623-1.026.996-2.683 1.683-4.673 1.94Zm-15.291-18.194a87.312 87.312 0 0 1-4.764-8.813l-.267-2.103 16.311-2.048a11.89 11.89 0 0 1 1.47-.095c1.408 0 2.651.28 3.587.817.487.279 1.972 1.129 2.359 4.171.459 3.616-1.11 5.65-4.868 6.38-.315.026-.613.032-.941.074l-12.887 1.617Z"/><path fill="#F8A023" d="M158.608 264.971a67.71 67.71 0 0 1-7.895-6.122c1.967-.26 3.606-.956 4.62-1.963.397-.396 1.608-1.601 1.225-4.677-.157-1.262-.608-2.98-1.864-4.001-1.02-.826-2.423-1.068-3.731-1.068-.149 0-.297.003-.442.008-.371.069-.74.141-1.124.191l-8.347 1.072a84.189 84.189 0 0 1-5.456-7.967l12.742-1.636c.325-.042.619-.048.931-.075 3.714-.738 5.267-2.796 4.812-6.454-.383-3.077-1.85-3.937-2.332-4.219-.926-.543-2.154-.826-3.546-.826-.469 0-.955.032-1.454.096l-16.127 2.071.265 2.128A93.965 93.965 0 0 1 125 214.453l3.702-.476.87 6.991 3.836-.493-.554-4.454 5.188-.666.553 4.454 2.866-.368-.554-4.455 5.188-.666.557 4.481c.493-.04 1.016-.064 1.563-.064 2.349 0 5.12.441 7.713 1.96 2.53 1.483 5.704 4.513 6.45 10.516.51 4.096-.38 7.662-2.396 10.415 2.689 2.214 4.376 5.501 4.875 9.515.747 6.003-1.585 9.741-3.673 11.818a13.874 13.874 0 0 1-2.576 2.01Z"/><path fill="url(#m)" d="m69.314 233.975-25.678-13.876-8.549-67.609a10.85 10.85 0 0 1 2.587-8.506L114 186.426a63.917 63.917 0 0 0-9.548 5.323c-17.23 8.111-30.047 23.835-35.138 42.226Z"/><path fill="#A96D2A" d="M76.154 237.974 69 234.102c5.07-18.345 17.838-34.032 35-42.123-15.343 10.382-25.736 27.147-27.846 45.995Z"/><path fill="#F9AB29" d="M76 237.974v-.001c2.089-18.734 12.38-35.397 27.571-45.716a62.914 62.914 0 0 1 9.417-5.277l.012.007c-20.291 9.177-34.503 28.599-37 50.987Z"/><path fill="#F89A26" d="m180.756 294.968-13.984-7.562a49.937 49.937 0 0 0 13.777-13.256c5.041 1.256 10.208 2.015 15.451 2.386a64.636 64.636 0 0 1-15.244 18.432Zm-90.752-49.072L76 238.324c2.526-22.545 16.904-42.103 37.432-51.344l8.892 4.947a94.08 94.08 0 0 0 .244 6.86c-19.483 7.168-32.746 25.978-32.564 47.109Z"/><path fill="#FCCA38" d="m166.305 286.969-30.638-16.549-.184-1.457 3.859-.487.48 3.801 5.218-.657-.481-3.803 2.883-.364.481 3.802 5.217-.659-.484-3.826c1.801-.313 3.948-.932 5.977-2.146 6.728 4.382 13.907 7.328 21.367 9.183a49.604 49.604 0 0 1-13.695 13.162Zm-45.574-24.617-30.73-16.599c-.18-20.981 13.002-39.657 32.368-46.775a94.332 94.332 0 0 0 2.461 15.677l-4.625.584.874 6.915-5.759.727 1.056 8.341 5.759-.726 3.944 31.181-5.348.675Zm13.696-1.73-1.438-11.37 7.984-1.008a79.208 79.208 0 0 0 9.294 9.944l.426.38-.045.006-16.221 2.048Zm-2.506-19.808-1.172-9.269a87.46 87.46 0 0 0 4.737 8.818l-3.565.451Z"/><path fill="#F79323" d="m140.325 271.97-.477-3.825-3.832.49.184 1.466-14.828-8.12 5.309-.68-3.916-31.382-5.717.732-1.048-8.395 5.717-.732-.867-6.96 4.591-.587a93.382 93.382 0 0 0 5.876 16.999l1.164 9.328 3.539-.453a84.038 84.038 0 0 0 5.448 7.931l-7.927 1.014 1.428 11.444 16.103-2.062a.325.325 0 0 0 .045-.006 67.515 67.515 0 0 0 7.883 6.095c-2.015 1.222-4.146 1.846-5.934 2.16l.481 3.851-5.18.663-.478-3.827-2.861.367.477 3.827-5.18.662Z"/><path fill="#F9ED62" d="M180.116 238.974c-1.07 0-2.107-.572-2.449-1.891-2.141-8.256-6.689-15.674-13.104-21.428a2.794 2.794 0 0 1-.563-.678l12.978 7.065a48.032 48.032 0 0 1 5.926 13.628c.52 2-1.172 3.304-2.788 3.304ZM181.976 254.972c-1.508 0-2.999-.873-2.778-2.484.289-2.091-1.189-5.69 1.154-7.054a3.502 3.502 0 0 1 1.741-.461c1.172 0 2.278.594 2.518 1.805.378 1.891.516 3.8.253 5.709-.005 1.695-1.454 2.485-2.888 2.485Z"/><path fill="#F5FBF1" d="M198.605 109.547a19.2 19.2 0 0 0-2.382.15l-153.132 19.34c-10.339 1.307-17.687 10.775-16.38 21.106l40.945 323.725a18.75 18.75 0 0 0 7.167 12.554 18.78 18.78 0 0 0 13.953 3.815l153.132-19.341a18.785 18.785 0 0 0 12.564-7.163 18.751 18.751 0 0 0 3.816-13.943l-40.945-323.724c-1.206-9.531-9.364-16.519-18.738-16.519Zm-112.24 382.4c-4.513 0-8.873-1.484-12.497-4.293a20.307 20.307 0 0 1-7.76-13.592L25.164 150.339c-1.414-11.185 6.54-21.434 17.733-22.848l153.13-19.34c11.189-1.412 21.449 6.536 22.864 17.719l40.945 323.726a20.302 20.302 0 0 1-4.131 15.093 20.317 20.317 0 0 1-13.601 7.752l-.098-.773.098.773-153.131 19.341c-.872.109-1.742.165-2.607.165Z"/><defs><linearGradient id="a" x1="355.999" x2="451.998" y1="450.451" y2="450.451" gradientUnits="userSpaceOnUse"><stop stop-color="#7331C6"/><stop offset=".943" stop-color="#E62EDE"/></linearGradient><linearGradient id="b" x1="103" x2="199" y1="45.495" y2="45.495" gradientUnits="userSpaceOnUse"><stop stop-color="#D63AA5"/><stop offset=".998" stop-color="#D792CF"/><stop offset="1" stop-color="#D792CF"/></linearGradient><linearGradient id="c" x1="448.563" x2="375.092" y1="-21.151" y2="348.23" gradientUnits="userSpaceOnUse"><stop stop-color="#FFA5E3"/><stop offset="1" stop-color="#2B1567"/></linearGradient><linearGradient id="d" x1="448.118" x2="375.713" y1="-18.945" y2="347.308" gradientUnits="userSpaceOnUse"><stop stop-color="#D05AB4"/><stop offset="1" stop-color="#8568BB"/></linearGradient><linearGradient id="e" x1="449.06" x2="376.558" y1="-19.54" y2="347.153" gradientUnits="userSpaceOnUse"><stop stop-color="#D05AB4"/><stop offset="1" stop-color="#8568BB"/></linearGradient><linearGradient id="f" x1="448.715" x2="374.144" y1="-22.418" y2="349.344" gradientUnits="userSpaceOnUse"><stop stop-color="#D94CAE"/><stop offset="1" stop-color="#655DB4"/></linearGradient><linearGradient id="g" x1="448.557" x2="375.041" y1="-21.834" y2="347.749" gradientUnits="userSpaceOnUse"><stop stop-color="#D94CAE"/><stop offset="1" stop-color="#655DB4"/></linearGradient><linearGradient id="h" x1="165.231" x2="117.371" y1="500.509" y2="88.083" gradientUnits="userSpaceOnUse"><stop stop-color="#4641A1"/><stop offset=".001" stop-color="#4641A1"/><stop offset=".997" stop-color="#62CDF5"/><stop offset="1" stop-color="#62CDF5"/></linearGradient><linearGradient id="i" x1="165.565" x2="118.101" y1="499.947" y2="88.757" gradientUnits="userSpaceOnUse"><stop stop-color="#5E4AA8"/><stop offset=".001" stop-color="#5E4AA8"/><stop offset=".997" stop-color="#7DD5F3"/><stop offset="1" stop-color="#7DD5F3"/></linearGradient><linearGradient id="j" x1="164.843" x2="114.876" y1="502.762" y2="81.124" gradientUnits="userSpaceOnUse"><stop stop-color="#5E4AA8"/><stop offset=".001" stop-color="#5E4AA8"/><stop offset=".997" stop-color="#7DD5F3"/><stop offset="1" stop-color="#7DD5F3"/></linearGradient><linearGradient id="k" x1="165.292" x2="117.447" y1="499.76" y2="87.381" gradientUnits="userSpaceOnUse"><stop stop-color="#444BA7"/><stop offset=".001" stop-color="#444BA7"/><stop offset=".997" stop-color="#67CEEF"/><stop offset="1" stop-color="#67CEEF"/></linearGradient><linearGradient id="l" x1="165.028" x2="117.339" y1="499.594" y2="88.153" gradientUnits="userSpaceOnUse"><stop stop-color="#444BA7"/><stop offset=".001" stop-color="#444BA7"/><stop offset=".997" stop-color="#67CEEF"/><stop offset="1" stop-color="#67CEEF"/></linearGradient><linearGradient id="m" x1="165.763" x2="117.858" y1="500.845" y2="86.823" gradientUnits="userSpaceOnUse"><stop stop-color="#444BA7"/><stop offset=".001" stop-color="#444BA7"/><stop offset=".997" stop-color="#67CEEF"/><stop offset="1" stop-color="#67CEEF"/></linearGradient></defs></svg>
